# xmcd
#
# Track frame offsets: 
#        183
#        47820
#        99970
#        147658
#        204410
#        241310
#        268583
#
# Disc length: 4027 seconds
#
# Revision: 1
# Processed by: cddbd v1.5.2PL0 Copyright (c) Steve Scherf et al.
# Submitted via: ExactAudioCopy v0.99pb5
#
DISCID=610fb907
DTITLE=Various Artist - SCHEHERAZADE, LA MER
DYEAR=1900
DGENRE=Classical
TTITLE0=??????????? - ???????????????35 ?1?? - ??????????
TTITLE1=??????????? - ???????????????35 ?2?? - ???????????
TTITLE2=??????????? - ???????????????35 ?3?? - ???????
TTITLE3=??????????? - ???????????????35 ?4?? - ???????????????????????
TTITLE3=????
TTITLE4=??????????? - ?????? 1.???????????
TTITLE5=??????????? - ?????? 2.????
TTITLE6=??????????? - ?????? 3.???????
EXTD=
EXTT0=
EXTT1=
EXTT2=
EXTT3=
EXTT4=
EXTT5=
EXTT6=
PLAYORDER=
